<?xml version="1.0" encoding="iso-8859-1"?>
<!-- Generator: Adobe Illustrator 19.0.0, SVG Export Plug-In . SVG Version: 6.00 Build 0)  -->
<svg version="1.1" id="Capa_1" xmlns="http://www.w3.org/2000/svg" xmlns:xlink="http://www.w3.org/1999/xlink" x="0px" y="0px"
	 viewBox="0 0 512 512" style="enable-background:new 0 0 512 512;" xml:space="preserve">
<path style="fill:#E7E7E7;" d="M512,286c0,66.299-54.699,120-121,120H121C54.699,406,0,352.299,0,286
	c0-54.901,38.101-102.601,90.601-115.8C96.599,100,155.799,46,226,46c10.201,0,20.4,1.199,30,3.6
	c34.501,7.8,64.501,29.399,83.699,60.3c25.801-7.2,54.901-1.201,74.401,17.999c12.9,12.9,21.099,29.7,22.299,47.401
	C482,193.599,512,236.499,512,286z"/>
<path style="fill:#D3D3D8;" d="M512,286c0,66.299-54.699,120-121,120H256V49.6c34.501,7.8,64.501,29.399,83.699,60.3
	c25.801-7.2,54.901-1.201,74.401,17.999c12.9,12.9,21.099,29.7,22.299,47.401C482,193.599,512,236.499,512,286z"/>
<path style="fill:#3AAAFF;" d="M329.2,353.8c-2.701-4.801-7.8-7.8-13.2-7.8h-15v-75c0-8.401-6.599-15-15-15h-60
	c-8.401,0-15,6.599-15,15v75h-15c-5.4,0-10.499,2.999-13.2,7.8c-2.701,5.099-2.401,10.8,0.601,15.599l60,90
	c2.999,4.2,7.5,6.601,12.599,6.601s9.6-2.401,12.599-6.601l60-90C331.601,364.6,331.901,358.9,329.2,353.8z"/>
<path style="fill:#0095FF;" d="M328.599,369.399l-60,90c-2.999,4.2-7.5,6.601-12.599,6.601V256h30c8.401,0,15,6.599,15,15v75h15
	c5.4,0,10.499,2.999,13.2,7.8C331.901,358.9,331.601,364.6,328.599,369.399z"/>
<g>
</g>
<g>
</g>
<g>
</g>
<g>
</g>
<g>
</g>
<g>
</g>
<g>
</g>
<g>
</g>
<g>
</g>
<g>
</g>
<g>
</g>
<g>
</g>
<g>
</g>
<g>
</g>
<g>
</g>
</svg>
