<svg id="Layer_1" enable-background="new 0 0 481.9 481.9" height="512" viewBox="0 0 481.9 481.9" width="512" xmlns="http://www.w3.org/2000/svg"><g><path d="m472.9 141.734v272c0 22.079-17.919 40-40 40h-384c-22.079 0-40-17.919-40-40v-272c0-22.09 17.91-40 40-40h384c22.09 0 40 17.91 40 40z" fill="#d1e7ff"/></g><path d="m287.35 268.184 173.83 173.83c-7.24 7.24-17.24 11.72-28.28 11.72h-384c-11.04 0-21.04-4.48-28.28-11.72l173.83-173.83 25.48 12.37c13.24 6.43 28.7 6.43 41.94 0z" fill="#b9dcff"/><g><g><path d="m472.9 141.734v24.674c0 11.769-10.724 20.489-22.259 18.321-108.751-20.444-218.452-4.32-315.477 46.277-5.23 2.727-11.439 2.827-16.745.25l-109.519-53.192v-36.33c0-22.091 17.909-40 40-40h384c22.092 0 40 17.908 40 40z" fill="#e8f3ff"/></g></g><path d="m472.9 178.064v33.5l-163 79.17-22.55-22.55z" fill="#b9dcff"/><path d="m309.9 290.734c-27.53 13.368-16.217 7.875-48.03 23.32-13.24 6.43-28.7 6.43-41.94 0-31.807-15.442-20.486-9.945-48.03-23.32l22.55-22.55 25.48 12.37c13.24 6.43 28.7 6.43 41.94 0l25.48-12.37z" fill="#a2d0ff"/><path d="m194.45 268.184-22.55 22.55-163-79.17v-33.5z" fill="#b9dcff"/><g><circle cx="334.9" cy="102.306" fill="#d1e7ff" r="31"/></g><path d="m345.216 89.608c-11.217 2.742-20.284 11.771-23.034 22.986-1.979 8.071-13.219 8.598-16.213.845-9.676-25.056 15.207-49.797 40.212-40.005 7.684 3.01 7.051 14.215-.965 16.174z" fill="#e8f3ff"/><g><circle cx="450.9" cy="154.306" fill="#d1e7ff" r="31"/></g><g><path d="m481.9 50.306c0 17.09-13.91 31-31 31-11.5 0-22-6.32-27.39-16.48-10.896-20.363 3.925-45.52 27.39-45.52 17.09 0 31 13.91 31 31z" fill="#d1e7ff"/></g><path d="m461.216 37.608c-11.217 2.742-20.284 11.771-23.034 22.986-1.979 8.071-13.219 8.598-16.213.845-9.676-25.056 15.207-49.797 40.212-40.005 7.684 3.01 7.051 14.215-.965 16.174z" fill="#e8f3ff"/><path d="m461.216 141.608c-11.217 2.742-20.284 11.771-23.034 22.986-1.979 8.071-13.219 8.598-16.213.845-9.676-25.056 15.207-49.797 40.212-40.005 7.684 3.01 7.051 14.215-.965 16.174z" fill="#e8f3ff"/><path d="m481.801 224.306v185.371c0 29.214-23.768 52.98-52.981 52.98h-375.839c-29.213.001-52.981-23.766-52.981-52.98v-263.887c0-29.214 23.768-52.98 52.981-52.98h213.019c4.971 0 9 4.029 9 9s-4.029 9-9 9h-213.019c-19.289 0-34.981 15.692-34.981 34.98v26.685l205.905 99.995c10.808 5.248 23.207 5.258 34.019.026l137.058-66.292c4.476-2.165 9.857-.292 12.021 4.183 2.165 4.475.292 9.856-4.183 12.021l-137.058 66.294c-15.674 7.579-33.794 7.695-49.72-.04l-198.042-96.176v217.191c0 19.288 15.692 34.98 34.981 34.98h375.838c19.289 0 34.981-15.692 34.981-34.98v-185.371c0-4.971 4.029-9 9-9s9.001 4.029 9.001 9zm-341.225 85.047-87.712 87.713c-3.515 3.515-3.515 9.214 0 12.729 3.517 3.515 9.213 3.514 12.729 0l87.712-87.713c3.515-3.515 3.515-9.214 0-12.729-3.516-3.514-9.213-3.514-12.729 0zm187.92 0c-3.515 3.515-3.515 9.214 0 12.729l87.712 87.713c1.758 1.757 4.061 2.636 6.364 2.636 7.947 0 12.051-9.678 6.364-15.364l-87.712-87.713c-3.514-3.514-9.211-3.516-12.728-.001zm-24.596-207.047c0-27.741 33.864-41.472 53.202-21.604l63.219-25.327c-3.144-19.031 11.619-36.069 30.579-36.069 17.094 0 31 13.906 31 31 0 27.939-34.335 41.625-53.547 21.242l-62.957 25.222c.674 3.718.684 7.436-.034 11.26l34.51 14.722c4.572 1.95 6.697 7.238 4.747 11.81-1.949 4.57-7.234 6.697-11.81 4.747l-35.82-15.281c-19.413 19.738-53.089 5.916-53.089-21.722zm134-52c0 7.168 5.832 13 13 13s13-5.832 13-13-5.832-13-13-13-13 5.832-13 13zm-116 52c0 7.168 5.832 13 13 13s13-5.832 13-13-5.832-13-13-13-13 5.832-13 13zm160 52c0 17.094-13.906 31-31 31s-31-13.906-31-31 13.906-31 31-31 31 13.906 31 31zm-18 0c0-7.168-5.832-13-13-13s-13 5.832-13 13 5.832 13 13 13 13-5.832 13-13z" fill="#2e58ff"/></svg>