<!-- <svg xmlns="http://www.w3.org/2000/svg" viewBox="0 0 1440 320">
    <path fill="#2f3136" fill-opacity="1" d="M0,256L48,229.3C96,203,192,149,288,154.7C384,160,480,224,576,218.7C672,213,768,139,864,128C960,117,1056,171,1152,197.3C1248,224,1344,224,1392,224L1440,224L1440,320L1392,320C1344,320,1248,320,1152,320C1056,320,960,320,864,320C768,320,672,320,576,320C480,320,384,320,288,320C192,320,96,320,48,320L0,320Z"></path>
</svg> -->
<!-- <svg class="" xmlns="http://www.w3.org/2000/svg" viewBox="0 0 1440 320">
    <path fill="#2f3136" fill-opacity="1" d="M0,32L60,32C120,32,240,32,360,69.3C480,107,600,181,720,186.7C840,192,960,128,1080,90.7C1200,53,1320,43,1380,37.3L1440,32L1440,320L1380,320C1320,320,1200,320,1080,320C960,320,840,320,720,320C600,320,480,320,360,320C240,320,120,320,60,320L0,320Z"></path>
</svg> -->
<svg xmlns="http://www.w3.org/2000/svg" viewBox="0 0 1440 320">
    <path fill="#2f3136" fill-opacity="1" d="M826.337463,25.5396311 C670.970254,58.655965 603.696181,68.7870267 447.802481,35.1443383 C293.342778,1.81111414 137.33377,1.81111414 0,1.81111414 L0,150 L1920,150 L1920,1.81111414 C1739.53523,-16.6853983 1679.86404,73.1607868 1389.7826,37.4859505 C1099.70117,1.81111414 981.704672,-7.57670281 826.337463,25.5396311 Z"></path>
</svg>